<?xml version="1.0" encoding="UTF-8"?> <svg xmlns="http://www.w3.org/2000/svg" xmlns:xodm="http://www.corel.com/coreldraw/odm/2003" clip-rule="evenodd" fill-rule="evenodd" height="512" image-rendering="optimizeQuality" shape-rendering="geometricPrecision" text-rendering="geometricPrecision" viewBox="0 0 512 512" width="512"><g id="Layer_x0020_1"><g id="_1671582670160"><path d="m30 315.54h-24.97c-2.77 0-5-2.24-5-5v-22.43c0-2.76 2.23-5 5-5h24.97c2.76 0 5 2.24 5 5v22.43c0 2.76-2.24 5-5 5z" fill="#ec3352"></path><path d="m304.33 337.04h-149.62c-1.54 0-2.99-.71-3.94-1.93-9.1-11.67-22.8-18.37-37.58-18.37-14.79 0-28.49 6.7-37.59 18.37-.94 1.22-2.4 1.93-3.94 1.93h-41.66c-2.76 0-5-2.24-5-5v-229.57c0-6.88 5.59-12.47 12.46-12.47h259.41c6.87 0 12.46 5.59 12.46 12.47v229.57c0 2.76-2.24 5-5 5z" fill="#ffbc42"></path><path d="m500.76 337.04h-41.66c-1.54 0-2.99-.71-3.94-1.93-9.1-11.67-22.8-18.37-37.59-18.37-14.78 0-28.48 6.7-37.58 18.37-.95 1.22-2.4 1.93-3.94 1.93h-52.65c-2.77 0-5-2.24-5-5v-169.49c0-5.27 4.29-9.56 9.56-9.56h125.8c5.33 0 7.52 4.33 8.69 6.65l.31.61 42.44 81.63c.37.71.56 1.51.56 2.31v87.85c0 2.76-2.24 5-5 5z" fill="#ec3352"></path><path d="m505.76 283.11v32.43h-29.98c-2.76 0-5-2.24-5-5v-22.43c0-2.76 2.24-5 5-5z" fill="#ffbc42"></path><path d="m365.05 366.05h-199.34c-2.64 0-4.83-2.05-4.99-4.69-.6-9.59-4.04-18.66-9.95-26.25-1.17-1.5-1.39-3.55-.55-5.26.84-1.72 2.58-2.81 4.49-2.81h221.34c1.91 0 3.65 1.09 4.49 2.81.84 1.71.62 3.76-.55 5.26-5.91 7.58-9.35 16.66-9.95 26.25-.16 2.64-2.35 4.69-4.99 4.69zm-304.38 0h-36.88c-2.77 0-5-2.24-5-5v-29.01c0-2.76 2.23-5 5-5h47.87c1.91 0 3.65 1.09 4.49 2.81.84 1.71.63 3.76-.55 5.26-5.91 7.58-9.35 16.66-9.94 26.25-.17 2.64-2.35 4.69-4.99 4.69zm446.3 0h-36.88c-2.64 0-4.82-2.05-4.99-4.69-.59-9.59-4.03-18.66-9.94-26.25-1.18-1.5-1.39-3.55-.55-5.26.84-1.72 2.58-2.81 4.49-2.81h47.87c2.77 0 5 2.24 5 5v29.01c0 2.76-2.23 5-5 5z" fill="#64798a"></path><path d="m456.85 250.03c-.01 0-.01 0-.02 0h-97.8c-2.76 0-5-2.24-5-5v-57.19c0-2.76 2.24-5 5-5h76.58c2.09 0 3.96 1.3 4.69 3.26l21.06 56.78c.31.65.49 1.38.49 2.15 0 2.76-2.24 5-5 5z" fill="#27a2db"></path><path d="m113.19 422c-31.78 0-57.63-25.85-57.63-57.63s25.85-57.63 57.63-57.63c31.77 0 57.62 25.85 57.62 57.63 0 31.77-25.85 57.63-57.62 57.63zm304.38 0c-31.77 0-57.62-25.85-57.62-57.63s25.85-57.63 57.62-57.63c31.78 0 57.63 25.85 57.63 57.63 0 31.77-25.85 57.63-57.63 57.63z" fill="#2f4859"></path><path d="m493.44 421.99h-456.13c-2.76 0-4.99-2.23-4.99-5 0-2.76 2.23-5 4.99-5h456.13c2.77 0 5 2.24 5 5 0 2.77-2.23 5-5 5z" fill="#64798a"></path><path d="m241.41 242.52h-148.49c-2.76 0-4.99-2.24-4.99-5v-107.47c0-2.76 2.23-5 4.99-5h48.74v51.15c0 1.8.96 3.46 2.53 4.35 1.56.88 3.48.86 5.03-.06l18.07-10.77 17.8 10.76c.79.48 1.69.72 2.59.72.84 0 1.69-.22 2.45-.65 1.57-.88 2.55-2.55 2.55-4.35v-51.15h48.73c2.76 0 5 2.24 5 5v107.47c0 2.76-2.24 5-5 5z" fill="#ec3352"></path><path d="m141.66 125.05h51.02v51.15c0 1.8-.98 3.47-2.55 4.35-.76.43-1.61.65-2.45.65-.9 0-1.8-.24-2.59-.72l-17.8-10.76-18.07 10.77c-1.55.92-3.47.94-5.03.06-1.57-.89-2.53-2.55-2.53-4.35z" fill="#ffbc42"></path><g fill="#fefefe"><path d="m113.19 393.82c-16.24 0-29.45-13.21-29.45-29.45s13.21-29.45 29.45-29.45c16.23 0 29.44 13.21 29.44 29.45s-13.21 29.45-29.44 29.45zm304.38 0c-16.23 0-29.44-13.21-29.44-29.45s13.21-29.45 29.44-29.45c16.24 0 29.45 13.21 29.45 29.45s-13.21 29.45-29.45 29.45z"></path><path d="m373.96 279.65h-14.93c-2.76 0-5-2.24-5-5 0-2.77 2.24-5 5-5h14.93c2.76 0 5 2.23 5 5 0 2.76-2.24 5-5 5z"></path></g></g><g id="_1671582670352"><g><g id="_310394904"><path d="m304.33 337.04h-149.62c-1.54 0-2.99-.71-3.94-1.93-9.1-11.67-22.8-18.37-37.58-18.37-14.79 0-28.49 6.7-37.59 18.37-.94 1.22-2.4 1.93-3.94 1.93h-41.66c-2.76 0-5-2.24-5-5v-229.57c0-6.88 5.59-12.47 12.46-12.47h259.41c6.87 0 12.46 5.59 12.46 12.47v229.57c0 2.76-2.24 5-5 5zm-147.24-10h142.24v-224.57c0-1.34-1.13-2.47-2.46-2.47h-259.41c-1.33 0-2.46 1.13-2.46 2.47v224.57h34.28c10.99-12.93 26.85-20.3 43.91-20.3 17.05 0 32.92 7.37 43.9 20.3z"></path></g><g id="_310395792"><path d="m500.76 337.04h-41.66c-1.54 0-2.99-.71-3.94-1.93-9.1-11.67-22.8-18.37-37.59-18.37-14.78 0-28.48 6.7-37.58 18.37-.95 1.22-2.4 1.93-3.94 1.93h-52.65c-2.77 0-5-2.24-5-5v-169.49c0-5.27 4.29-9.56 9.56-9.56h125.8c5.33 0 7.52 4.33 8.69 6.65l.31.61 42.44 81.63c.37.71.56 1.51.56 2.31v87.85c0 2.76-2.24 5-5 5zm-39.28-10h34.28v-81.63l-42.23-81.26c-.18-.35-.41-.81-.61-1.16h-124.52v164.05h45.27c10.98-12.93 26.85-20.3 43.9-20.3 17.06 0 32.92 7.37 43.91 20.3z"></path></g><g id="_310395768"><path d="m506.97 366.05h-36.88c-2.64 0-4.82-2.05-4.99-4.69-.59-9.59-4.03-18.66-9.94-26.25-1.18-1.5-1.39-3.55-.55-5.26.84-1.72 2.58-2.81 4.49-2.81h47.87c2.77 0 5 2.24 5 5v29.01c0 2.76-2.23 5-5 5zm-32.37-10h27.37v-19.01h-33.65c3.19 5.91 5.32 12.33 6.28 19.01zm-109.55 10h-199.34c-2.64 0-4.83-2.05-4.99-4.69-.6-9.59-4.04-18.66-9.95-26.25-1.17-1.5-1.39-3.55-.55-5.26.84-1.72 2.58-2.81 4.49-2.81h221.34c1.91 0 3.65 1.09 4.49 2.81.84 1.71.62 3.76-.55 5.26-5.91 7.58-9.35 16.66-9.95 26.25-.16 2.64-2.35 4.69-4.99 4.69zm-194.84-10h190.34c.96-6.68 3.08-13.1 6.28-19.01h-202.89c3.19 5.91 5.31 12.33 6.27 19.01zm-109.54 10h-36.88c-2.77 0-5-2.24-5-5v-29.01c0-2.76 2.23-5 5-5h47.87c1.91 0 3.65 1.09 4.49 2.81.84 1.71.63 3.76-.55 5.26-5.91 7.58-9.35 16.66-9.94 26.25-.17 2.64-2.35 4.69-4.99 4.69zm-31.88-10h27.37c.96-6.68 3.09-13.1 6.28-19.01h-33.65z"></path></g><g id="_310394328"><path d="m456.85 250.03c-.01 0-.01 0-.02 0h-97.8c-2.76 0-5-2.24-5-5v-57.19c0-2.76 2.24-5 5-5h76.58c2.09 0 3.96 1.3 4.69 3.26l21.06 56.78c.31.65.49 1.38.49 2.15 0 2.76-2.24 5-5 5zm-92.82-10h85.61l-17.51-47.19h-68.1z"></path></g><g id="_310395168"><path d="m113.19 393.82c-16.24 0-29.45-13.21-29.45-29.45s13.21-29.45 29.45-29.45c16.23 0 29.44 13.21 29.44 29.45s-13.21 29.45-29.44 29.45zm0-48.9c-10.73 0-19.45 8.73-19.45 19.45s8.72 19.45 19.45 19.45c10.72 0 19.44-8.73 19.44-19.45s-8.72-19.45-19.44-19.45z"></path></g><g><g id="_310395960"><path d="m113.19 422c-31.78 0-57.63-25.85-57.63-57.63s25.85-57.63 57.63-57.63c31.77 0 57.62 25.85 57.62 57.63 0 31.77-25.85 57.63-57.62 57.63zm0-105.26c-26.27 0-47.63 21.37-47.63 47.63s21.36 47.63 47.63 47.63c26.26 0 47.62-21.37 47.62-47.63s-21.36-47.63-47.62-47.63z"></path></g><g id="_310394400"><path d="m417.57 422c-31.77 0-57.62-25.85-57.62-57.63s25.85-57.63 57.62-57.63c31.78 0 57.63 25.85 57.63 57.63 0 31.77-25.85 57.63-57.63 57.63zm0-105.26c-26.26 0-47.63 21.37-47.63 47.63s21.37 47.63 47.63 47.63c26.27 0 47.63-21.37 47.63-47.63s-21.37-47.63-47.63-47.63z"></path></g></g><g id="_310396248"><path d="m417.57 393.82c-16.23 0-29.44-13.21-29.44-29.45s13.21-29.45 29.44-29.45c16.24 0 29.45 13.21 29.45 29.45s-13.21 29.45-29.45 29.45zm0-48.9c-10.72 0-19.45 8.73-19.45 19.45s8.73 19.45 19.45 19.45c10.73 0 19.45-8.73 19.45-19.45s-8.72-19.45-19.45-19.45z"></path></g><g id="_310396416"><path d="m493.44 421.99h-456.13c-2.76 0-4.99-2.23-4.99-5 0-2.76 2.23-5 4.99-5h456.13c2.77 0 5 2.24 5 5 0 2.77-2.23 5-5 5z"></path></g><g><g id="_310396008"><path d="m241.41 242.52h-148.49c-2.76 0-4.99-2.24-4.99-5v-107.47c0-2.76 2.23-5 4.99-5h148.49c2.76 0 5 2.24 5 5v107.47c0 2.76-2.24 5-5 5zm-143.49-10h138.49v-97.47h-138.49z"></path></g><g id="_310396560"><path d="m187.68 181.2c-.9 0-1.8-.24-2.59-.72l-17.8-10.76-18.07 10.77c-1.55.92-3.47.94-5.03.06-1.57-.89-2.53-2.55-2.53-4.35v-46.15c0-2.76 2.24-5 5-5h41.02c2.76 0 5 2.24 5 5v46.15c0 1.8-.98 3.47-2.55 4.35-.76.43-1.61.65-2.45.65zm-36.02-46.15v32.35l13.09-7.8c1.59-.95 3.57-.94 5.15.01l12.78 7.73v-32.29z"></path></g></g><g id="_310396632"><path d="m500.76 315.54h-24.98c-2.76 0-5-2.24-5-5v-22.43c0-2.76 2.24-5 5-5h24.98c2.76 0 5 2.24 5 5v22.43c0 2.76-2.24 5-5 5zm-19.98-10h14.98v-12.43h-14.98z"></path></g><g id="_310396704"><path d="m30 315.54h-24.97c-2.77 0-5-2.24-5-5v-22.43c0-2.76 2.23-5 5-5h24.97c2.76 0 5 2.24 5 5v22.43c0 2.76-2.24 5-5 5zm-19.97-10h14.97v-12.43h-14.97z"></path></g><g id="_310396800"><path d="m373.96 279.65h-14.93c-2.76 0-5-2.24-5-5 0-2.77 2.24-5 5-5h14.93c2.76 0 5 2.23 5 5 0 2.76-2.24 5-5 5z"></path></g></g></g></g></svg> 