<?xml version="1.0" encoding="UTF-8"?> <svg xmlns="http://www.w3.org/2000/svg" height="512" viewBox="0 0 64 64" width="512"><g id="Layer_60" data-name="Layer 60"><path d="m58.38 25.32a1.5 1.5 0 0 0 -1.38-.93h-20.57l6.11-19.95a1.5 1.5 0 0 0 -2.49-1.5l-34.11 34.11a1.47 1.47 0 0 0 -.32 1.63 1.5 1.5 0 0 0 1.38.93h20.57l-6.11 20a1.51 1.51 0 0 0 .66 1.73 1.54 1.54 0 0 0 .77.21 1.49 1.49 0 0 0 1.11-.49l34.06-34.06a1.47 1.47 0 0 0 .32-1.68z" fill="#f6ab2b"></path><path d="m58.38 25.32a1.5 1.5 0 0 0 -1.38-.93h-20.57l6.11-19.95a1.5 1.5 0 0 0 -2.49-1.5l-34.11 34.11a1.47 1.47 0 0 0 -.32 1.63 1.5 1.5 0 0 0 1.38.93h20.57l-6.11 20a1.51 1.51 0 0 0 .66 1.73 1.54 1.54 0 0 0 .77.21 1.49 1.49 0 0 0 1.11-.49l34.06-34.06a1.47 1.47 0 0 0 .32-1.68zm-32.29 29.36 4.91-16.11a1.6 1.6 0 0 0 -.14-1.19 1.48 1.48 0 0 0 -1.31-.77h-19l27.36-27.29-4.91 16.11a1.55 1.55 0 0 0 .12 1.16 1.49 1.49 0 0 0 1.33.8h19z"></path></g></svg> 