<?xml version="1.0" encoding="UTF-8"?> <svg xmlns="http://www.w3.org/2000/svg" id="Capa_1" viewBox="0 0 224.33 276.1"><defs><style> .cls-1 { fill: #fff; } </style></defs><g id="_x37_"><path class="cls-1" d="M197.63,59.99c-37.83,10.79-44.76,41.37-42.32,60.8-26.99-31.73-25.88-68.22-25.88-120.79C42.86,32.64,62.99,126.73,60.4,155.31c-21.77-17.83-25.88-60.4-25.88-60.4C11.53,106.74,0,138.32,0,163.93c0,61.95,50.22,112.17,112.17,112.17s112.17-50.22,112.17-112.17c0-36.82-27.03-53.8-26.7-103.94ZM116.48,258.84c-54.8,0-99.22-46.24-99.22-98.15,0-12.06.27-21.84,8.63-31.28-.91,5.46,12.05,52.24,54.4,49.79-1.84-35.54-11.45-122.61,33.2-152.7-3.95,47.32,7.64,110.88,59.33,120.16-2.96-18.97-2.61-50.54,10.68-56.38,1.42,29.07,22.92,47.01,22.92,74.94,0,50.59-48.95,93.6-89.94,93.6Z"></path></g></svg> 