<?xml version="1.0" encoding="UTF-8"?> <svg xmlns="http://www.w3.org/2000/svg" version="1.1" viewBox="0 0 300 150"><defs><style> .cls-1 { fill: none; stroke: #0268c3; stroke-miterlimit: 10; stroke-width: 3px; } .cls-2 { fill: #0268c3; } </style></defs><g><g id="Capa_1"><path class="cls-2" d="M61.77,29.27c-25.63,0-49.63,20.72-53.44,46.35-3.82,25.63,13.91,46.35,39.26,46.35s49.35-20.72,53.44-46.35c3.82-25.63-13.91-46.35-39.26-46.35ZM77.86,75.63c-1.91,12.82-13.91,23.18-26.72,23.18s-21.54-10.36-19.63-23.18c1.91-12.82,13.91-23.18,26.72-23.18s21.54,10.36,19.63,23.18ZM196.2,96.62c-9.82,15-26.99,25.36-45.26,25.36-25.63,0-43.35-20.72-39.26-46.35,4.09-25.63,27.81-46.35,53.17-46.35,14.72,0,26.99,6.82,33.81,17.72,2.18,3.82,2.45,4.91,2.45,4.91l-16.63,9.54s-4.09,2.45-7.36-1.36c-3.82-4.64-9-7.63-15.81-7.63-12.82,0-24.81,10.36-26.72,23.18-1.91,12.82,6.82,23.18,19.63,23.18,7.91,0,15.27-3.82,20.45-9.82,3.27-3,6.82-1.09,6.82-1.09l14.72,8.73ZM266.23,120.73l-1.56-12.46-17.92-17.92c-.78-.78-.26-2.34,1.04-2.34h14.28l-4.41-34.8-36.87,67.52h-25.69s50.47-92.71,50.47-92.71h34.83l11.79,92.71s-25.96,0-25.96,0Z"></path><rect class="cls-1" x="2.5" y="4" width="295" height="142" rx="15.96" ry="15.96"></rect></g></g></svg> 