<?xml version="1.0" encoding="UTF-8"?> <svg xmlns="http://www.w3.org/2000/svg" clip-rule="evenodd" fill-rule="evenodd" height="512" stroke-linejoin="round" stroke-miterlimit="2" viewBox="0 0 32 32" width="512"><g id="Icon"><g><path d="m26.268 20.496c.02.003.041.004.061.004h2.671c.276 0 .5-.224.5-.5v-4.298c0-.568-.193-1.119-.548-1.562-1.038-1.298-3.562-4.452-3.562-4.452-.094-.119-.238-.188-.39-.188h-4c-.276 0-.5.224-.5.5v9.342c0 .252.188.465.439.496z" fill="#00a1d6"></path><path d="m20.5 15.5h8.992c-.04-.496-.227-.97-.54-1.36-1.038-1.298-3.562-4.452-3.562-4.452-.094-.119-.238-.188-.39-.188h-4c-.276 0-.5.224-.5.5z" fill="#f3f3f3"></path><path d="m23.5 9.5h-2.5c-.276 0-.5.224-.5.5v5.5h2.5v-5.5c0-.276.224-.5.5-.5z" fill="#ffcc9b"></path><path d="m28.873 14.5h-7.873c-.276 0-.5.224-.5.5s.224.5.5.5h7.873c.276 0 .5-.224.5-.5s-.224-.5-.5-.5z" fill="#4383d5"></path><path d="m20.5 15.5v-5.5c0-.276.224-.5.5-.5h4c.152 0 .296.069.39.188 0 0 2.524 3.154 3.562 4.452.313.39.5.864.54 1.36h-1.006c-.036-.268-.144-.522-.315-.735 0 0-3.411-4.265-3.411-4.265h-3.26v5z" fill="#4383d5"></path><path d="m3.5 8v12c0 .276.224.5.5.5h16.671c.189 0 .362-.107.447-.276l.329-.658c.035-.07.053-.146.053-.224v-11.342c0-.276-.224-.5-.5-.5h-17c-.276 0-.5.224-.5.5z" fill="#f3f3f3"></path><path d="m6.5 7.5h-2.5c-.276 0-.5.224-.5.5v12c0 .276.224.5.5.5h16.671-14.171c-.276 0-.5-.224-.5-.5v-12c0-.276.224-.5.5-.5z" fill="#ffcc9b"></path><path d="m3 22.5h26c.276 0 .5-.224.5-.5v-2c0-.276-.224-.5-.5-.5h-26c-.276 0-.5.224-.5.5v2c0 .276.224.5.5.5z" fill="#00a1d6"></path><path d="m5.5 19.5h-2.5c-.276 0-.5.224-.5.5v2c0 .276.224.5.5.5h2.5c-.276 0-.5-.224-.5-.5v-2c0-.276.224-.5.5-.5z" fill="#1d7f9f"></path><circle cx="8" cy="21" fill="#00a1d6" r="3.5"></circle><path d="m9.25 24.27c-1.315-.504-2.25-1.779-2.25-3.27s.935-2.766 2.25-3.27c-.388-.149-.81-.23-1.25-.23-1.932 0-3.5 1.568-3.5 3.5s1.568 3.5 3.5 3.5c.44 0 .862-.081 1.25-.23z" fill="#1d7f9f"></path><circle cx="23.5" cy="21" fill="#00a1d6" r="3.5"></circle><path d="m24.75 24.27c-1.315-.504-2.25-1.779-2.25-3.27s.935-2.766 2.25-3.27c-.388-.149-.81-.23-1.25-.23-1.932 0-3.5 1.568-3.5 3.5s1.568 3.5 3.5 3.5c.44 0 .862-.081 1.25-.23z" fill="#1d7f9f"></path><circle cx="8" cy="21" fill="#f3f3f3" r="2"></circle><path d="m9.25 22.561c-.457-.367-.75-.93-.75-1.561s.293-1.194.75-1.561c-.343-.275-.777-.439-1.25-.439-1.104 0-2 .896-2 2s.896 2 2 2c.473 0 .907-.164 1.25-.439z" fill="#ffcc9b"></path><circle cx="23.5" cy="21" fill="#f3f3f3" r="2"></circle><path d="m24.75 22.561c-.457-.367-.75-.93-.75-1.561s.293-1.194.75-1.561c-.343-.275-.777-.439-1.25-.439-1.104 0-2 .896-2 2s.896 2 2 2c.473 0 .907-.164 1.25-.439z" fill="#ffcc9b"></path><path d="m17.447 11.224c.078-.155.069-.339-.022-.487-.091-.147-.252-.237-.425-.237h-5c-.189 0-.363.107-.447.276l-2 4c-.078.155-.069.339.022.487.091.147.252.237.425.237h5c.189 0 .363-.107.447-.276z" fill="#ff9a37"></path><path d="m9 10.5h-3.829c-.276 0-.5.224-.5.5s.224.5.5.5h3.829c.276 0 .5-.224.5-.5s-.224-.5-.5-.5z" fill="#e7e7e7"></path><path d="m8 12.5h-4c-.276 0-.5.224-.5.5s.224.5.5.5h4c.276 0 .5-.224.5-.5s-.224-.5-.5-.5z" fill="#e7e7e7"></path><path d="m7 14.5h-3.962c-.276 0-.5.224-.5.5s.224.5.5.5h3.962c.276 0 .5-.224.5-.5s-.224-.5-.5-.5z" fill="#e7e7e7"></path><path d="m10.829 20.5h9.842c.276 0 .5-.224.5-.5s-.224-.5-.5-.5h-9.842c-.276 0-.5.224-.5.5s.224.5.5.5z"></path><g fill="#2d5562"><path d="m21.5 19.342v-11.342c0-.276-.224-.5-.5-.5h-17c-.276 0-.5.224-.5.5v1.5c0 .276.224.5.5.5s.5-.224.5-.5v-1h16v10.842c0 .276.224.5.5.5s.5-.224.5-.5z"></path><path d="m3.5 17v3c0 .276.224.5.5.5h1.171c.276 0 .5-.224.5-.5s-.224-.5-.5-.5h-.671v-2.5c0-.276-.224-.5-.5-.5s-.5.224-.5.5z"></path><path d="m26.329 20.5h2.671c.276 0 .5-.224.5-.5v-4.298c0-.568-.193-1.119-.548-1.562-1.038-1.298-3.562-4.452-3.562-4.452-.094-.119-.238-.188-.39-.188h-4c-.276 0-.5.224-.5.5v9.342c0 .276.224.5.5.5s.5-.224.5-.5v-8.842h3.26s3.411 4.265 3.411 4.265c.213.265.329.596.329.937v3.798h-2.171c-.276 0-.5.224-.5.5s.224.5.5.5z"></path><path d="m28.873 14.5h-7.873c-.276 0-.5.224-.5.5s.224.5.5.5h7.873c.276 0 .5-.224.5-.5s-.224-.5-.5-.5z"></path><path d="m5.171 19.5h-2.171c-.276 0-.5.224-.5.5v2c0 .276.224.5.5.5h2.171c.276 0 .5-.224.5-.5s-.224-.5-.5-.5h-1.671v-1h1.671c.276 0 .5-.224.5-.5s-.224-.5-.5-.5z"></path><path d="m10.829 22.5h9.842c.276 0 .5-.224.5-.5s-.224-.5-.5-.5h-9.842c-.276 0-.5.224-.5.5s.224.5.5.5z"></path><path d="m26.329 22.5h2.671c.276 0 .5-.224.5-.5v-2c0-.276-.224-.5-.5-.5h-2.671c-.276 0-.5.224-.5.5s.224.5.5.5h2.171v1h-2.171c-.276 0-.5.224-.5.5s.224.5.5.5z"></path><path d="m20.671 19.5h-9.842c-.276 0-.5.224-.5.5s.224.5.5.5h9.842c.276 0 .5-.224.5-.5s-.224-.5-.5-.5z"></path><path d="m8 17.5c-1.932 0-3.5 1.568-3.5 3.5s1.568 3.5 3.5 3.5 3.5-1.568 3.5-3.5-1.568-3.5-3.5-3.5zm0 1c1.38 0 2.5 1.12 2.5 2.5s-1.12 2.5-2.5 2.5-2.5-1.12-2.5-2.5 1.12-2.5 2.5-2.5z"></path><path d="m23.5 17.5c-1.932 0-3.5 1.568-3.5 3.5s1.568 3.5 3.5 3.5 3.5-1.568 3.5-3.5-1.568-3.5-3.5-3.5zm0 1c1.38 0 2.5 1.12 2.5 2.5s-1.12 2.5-2.5 2.5-2.5-1.12-2.5-2.5 1.12-2.5 2.5-2.5z"></path><path d="m8 19c-1.104 0-2 .896-2 2s.896 2 2 2 2-.896 2-2-.896-2-2-2zm0 1c.552 0 1 .448 1 1s-.448 1-1 1-1-.448-1-1 .448-1 1-1z"></path><path d="m23.5 19c-1.104 0-2 .896-2 2s.896 2 2 2 2-.896 2-2-.896-2-2-2zm0 1c.552 0 1 .448 1 1s-.448 1-1 1-1-.448-1-1 .448-1 1-1z"></path><path d="m9 10.5h-3.829c-.276 0-.5.224-.5.5s.224.5.5.5h3.829c.276 0 .5-.224.5-.5s-.224-.5-.5-.5z"></path><path d="m8 12.5h-4c-.276 0-.5.224-.5.5s.224.5.5.5h4c.276 0 .5-.224.5-.5s-.224-.5-.5-.5z"></path><path d="m7 14.5h-3.962c-.276 0-.5.224-.5.5s.224.5.5.5h3.962c.276 0 .5-.224.5-.5s-.224-.5-.5-.5z"></path></g></g></g></svg> 