<svg width="28" height="28" viewBox="0 0 28 28" fill="none" xmlns="http://www.w3.org/2000/svg">
<path fill-rule="evenodd" clip-rule="evenodd" d="M13.9999 3.40712C8.14954 3.40712 3.40687 8.14978 3.40687 14.0002C3.40687 19.8505 8.14954 24.5932 13.9999 24.5932C19.8503 24.5932 24.593 19.8505 24.593 14.0002C24.593 8.14978 19.8503 3.40712 13.9999 3.40712ZM2.33325 14.0002C2.33325 7.55684 7.5566 2.3335 13.9999 2.3335C20.4432 2.3335 25.6666 7.55684 25.6666 14.0002C25.6666 20.4435 20.4432 25.6668 13.9999 25.6668C7.5566 25.6668 2.33325 20.4435 2.33325 14.0002Z" fill="#82838E"/>
<path fill-rule="evenodd" clip-rule="evenodd" d="M13.9999 7.95211C12.2408 7.95211 10.8148 9.37811 10.8148 11.1372C10.8148 12.8962 12.2408 14.3223 13.9999 14.3223C15.759 14.3223 17.185 12.8962 17.185 11.1372C17.185 9.37811 15.759 7.95211 13.9999 7.95211ZM9.74121 11.1372C9.74121 8.78517 11.6479 6.87849 13.9999 6.87849C16.3519 6.87849 18.2586 8.78517 18.2586 11.1372C18.2586 13.4892 16.3519 15.3959 13.9999 15.3959C11.6479 15.3959 9.74121 13.4892 9.74121 11.1372Z" fill="#82838E"/>
<path fill-rule="evenodd" clip-rule="evenodd" d="M7.76621 17.6802C8.45111 15.9585 9.5828 14.3786 11.4084 13.5149L11.8675 14.4854C10.3649 15.1963 9.38512 16.5152 8.76379 18.077C8.14138 19.6416 7.89662 21.4089 7.84418 22.9297L6.77119 22.8927C6.82612 21.3 7.08237 19.3991 7.76621 17.6802Z" fill="#82838E"/>
<path fill-rule="evenodd" clip-rule="evenodd" d="M19.2986 18.0547C18.6858 16.5141 17.7241 15.215 16.2419 14.5223L16.6965 13.5496C18.5067 14.3957 19.6207 15.9597 20.2962 17.6578C20.9707 19.3534 21.2268 21.2259 21.2999 22.7786L20.2275 22.8291C20.1574 21.3399 19.9125 19.5979 19.2986 18.0547Z" fill="#82838E"/>
<path fill-rule="evenodd" clip-rule="evenodd" d="M13.9999 3.40712C8.14954 3.40712 3.40687 8.14978 3.40687 14.0002C3.40687 19.8505 8.14954 24.5932 13.9999 24.5932C19.8503 24.5932 24.593 19.8505 24.593 14.0002C24.593 8.14978 19.8503 3.40712 13.9999 3.40712ZM2.33325 14.0002C2.33325 7.55684 7.5566 2.3335 13.9999 2.3335C20.4432 2.3335 25.6666 7.55684 25.6666 14.0002C25.6666 20.4435 20.4432 25.6668 13.9999 25.6668C7.5566 25.6668 2.33325 20.4435 2.33325 14.0002Z" stroke="#82838E" stroke-width="0.4" stroke-miterlimit="10"/>
<path fill-rule="evenodd" clip-rule="evenodd" d="M13.9999 7.95211C12.2408 7.95211 10.8148 9.37811 10.8148 11.1372C10.8148 12.8962 12.2408 14.3223 13.9999 14.3223C15.759 14.3223 17.185 12.8962 17.185 11.1372C17.185 9.37811 15.759 7.95211 13.9999 7.95211ZM9.74121 11.1372C9.74121 8.78517 11.6479 6.87849 13.9999 6.87849C16.3519 6.87849 18.2586 8.78517 18.2586 11.1372C18.2586 13.4892 16.3519 15.3959 13.9999 15.3959C11.6479 15.3959 9.74121 13.4892 9.74121 11.1372Z" stroke="#82838E" stroke-width="0.4" stroke-miterlimit="10"/>
<path fill-rule="evenodd" clip-rule="evenodd" d="M7.76621 17.6802C8.45111 15.9585 9.5828 14.3786 11.4084 13.5149L11.8675 14.4854C10.3649 15.1963 9.38512 16.5152 8.76379 18.077C8.14138 19.6416 7.89662 21.4089 7.84418 22.9297L6.77119 22.8927C6.82612 21.3 7.08237 19.3991 7.76621 17.6802Z" stroke="#82838E" stroke-width="0.4" stroke-miterlimit="10"/>
<path fill-rule="evenodd" clip-rule="evenodd" d="M19.2986 18.0547C18.6858 16.5141 17.7241 15.215 16.2419 14.5223L16.6965 13.5496C18.5067 14.3957 19.6207 15.9597 20.2962 17.6578C20.9707 19.3534 21.2268 21.2259 21.2999 22.7786L20.2275 22.8291C20.1574 21.3399 19.9125 19.5979 19.2986 18.0547Z" stroke="#82838E" stroke-width="0.4" stroke-miterlimit="10"/>
</svg>
