<?xml version="1.0" encoding="UTF-8"?> <svg xmlns="http://www.w3.org/2000/svg" width="33" height="36" viewBox="0 0 37.529 40"><path fill="#FFF" d="M33.332 5.943H.078v23.97a4.144 4.144 0 0 0 4.135 4.144h33.246V10.088c0-2.286-1.854-4.145-4.127-4.145z"></path><path fill-rule="evenodd" clip-rule="evenodd" fill="#C51530" d="M4.395 21.604c0-1.348.008-2.691-.012-4.041-.004-.334.109-.447.438-.437.521.022 1.045.022 1.566 0 .336-.011.428.12.426.446-.006 2.525-.004 5.047-.004 7.568 0 1.096.646 1.688 1.732 1.559.334-.045.426.043.42.365-.018.521-.004 1.045-.002 1.559.002.178-.025.311-.229.357-1.375.346-3.141-.424-3.857-1.695-.346-.605-.48-1.264-.48-1.957.002-1.242.002-2.482.002-3.724zm26.044 4.451c.045-.773-.094-1.725.076-2.665.426-2.361 2.479-3.077 4.217-2.85.205.022.273.118.271.314-.006.559-.006 1.12 0 1.679.002.225-.082.32-.309.292a3.076 3.076 0 0 0-.439-.017c-.855.025-1.396.559-1.404 1.416-.004 1.457-.008 2.906.008 4.361.008.34-.113.438-.434.423a25.104 25.104 0 0 0-1.6 0c-.297.013-.402-.083-.391-.387.013-.797.005-1.6.005-2.566zm-18.548-1.147c0 1.214-.01 2.43.002 3.645.01.334-.068.48-.441.457-.531-.029-1.062-.015-1.602-.001-.26.01-.387-.062-.387-.358.012-2.504.012-5.015 0-7.525 0-.287.115-.379.385-.375.551.015 1.096.017 1.639-.002.328-.008.408.129.406.432-.006 1.242-.002 2.485-.002 3.727z"></path><path fill-rule="evenodd" clip-rule="evenodd" fill="#E21939" d="M10.682 19.57c-.305-.002-.611 0-.918-.002-.246 0-.357-.096-.242-.347a3.931 3.931 0 0 1 2.025-2.007c.244-.111.346-.021.346.236-.002.612-.002 1.223 0 1.836 0 .209-.088.291-.287.289-.305-.011-.618-.005-.924-.005z"></path><path fill-rule="evenodd" clip-rule="evenodd" fill="#C51530" d="M20.918 17.535c0-.301-.125-.361-.387-.359-.529.011-1.068.019-1.604 0-.332-.017-.434.098-.428.432.02 1.176.01 2.354.01 3.572-1.902-1.218-4.135-.594-5.264 1.004-.775 1.096-1.002 2.309-.754 3.614.395 2.154 2.289 3.556 4.559 3.377 2.133-.165 3.824-1.892 3.857-4.032.034-2.538.005-5.071.011-7.608zm-5.102 9.151c-.807-.453-1.184-1.487-.896-2.468.254-.897.977-1.45 1.842-1.411.965.041 1.746.979 1.738 2.085-.01 1.514-1.449 2.483-2.684 1.794zm13.524-.58c-.588-.001-1.18.013-1.764-.006-.213-.004-.332.073-.453.243-.65.869-1.977.921-2.746.11.104-.048.193-.099.293-.138 1.607-.681 3.211-1.364 4.826-2.029.254-.102.346-.221.285-.506-.52-2.343-2.705-3.732-5.018-3.168-2.115.518-3.572 2.643-3.266 4.768.354 2.398 2.211 3.942 4.592 3.798 1.703-.097 3.037-1.062 3.574-2.572.149-.426.11-.497-.323-.5zm-4.44-3.241c.703-.332 1.371-.244 2.045.248-1.078.456-2.084.883-3.154 1.334.131-.74.467-1.279 1.109-1.582z"></path><path fill="#E51737" d="M1.922 29.913V5.943H.078v23.97a4.143 4.143 0 0 0 4.135 4.144h1.842a4.142 4.142 0 0 1-4.133-4.144z"></path><path fill="#C4102E" d="M1.287 29.913V5.943H.078v23.97a4.143 4.143 0 0 0 4.135 4.144H5.41c-2.275 0-4.123-1.858-4.123-4.144z"></path><path fill="gray" d="M37.449 34.138H4.213C1.893 34.138 0 32.239 0 29.913V5.943c0-.046.039-.081.078-.081h33.24c2.32 0 4.211 1.898 4.211 4.226v23.969a.083.083 0 0 1-.08.081zM.156 6.021v23.892a4.065 4.065 0 0 0 4.057 4.065h33.158v-23.89a4.064 4.064 0 0 0-4.053-4.066H.156z"></path></svg> 